<?xml version="1.0" encoding="UTF-8" standalone="no"?>
<!DOCTYPE svg PUBLIC "-//W3C//DTD SVG 1.1//EN" "http://www.w3.org/Graphics/SVG/1.1/DTD/svg11.dtd">
<svg version="1.1" xmlns="http://www.w3.org/2000/svg" xmlns:xlink="http://www.w3.org/1999/xlink" preserveAspectRatio="xMidYMid meet" viewBox="0 0 640 640" width="640" height="640"><defs><path d="M292.57 150.68C292.57 152.27 292.57 149.08 292.57 150.68C292.57 155.12 288.22 158.71 282.86 158.71C252.53 158.71 171.3 158.71 140.97 158.71C135.58 158.71 131.23 155.12 131.23 150.68C131.23 149.08 131.23 152.27 131.23 150.68C131.23 146.26 135.58 142.67 140.97 142.67C171.3 142.67 252.53 142.67 282.86 142.67C288.22 142.67 292.57 146.26 292.57 150.68Z" id="dULnrSRVE"></path><path d="M504.37 150.68C504.37 152.27 504.37 149.08 504.37 150.68C504.37 155.12 500.02 158.71 494.66 158.71C464.33 158.71 383.11 158.71 352.78 158.71C347.39 158.71 343.03 155.12 343.03 150.68C343.03 149.08 343.03 152.27 343.03 150.68C343.03 146.26 347.39 142.67 352.78 142.67C383.11 142.67 464.33 142.67 494.66 142.67C500.02 142.67 504.37 146.26 504.37 150.68Z" id="bmiuHQJh"></path><path d="M333.45 182.66C333.45 234.45 333.45 385.89 333.45 437.65C333.45 439.8 331.21 441.52 328.42 441.52C323 441.52 311.78 441.52 306.36 441.52C303.58 441.52 301.34 439.8 301.34 437.65C301.34 385.89 301.34 234.45 301.34 182.66C301.34 180.54 303.58 178.82 306.36 178.82C311.78 178.82 323 178.82 328.42 178.82C331.21 178.82 333.45 180.54 333.45 182.66Z" id="b4vXDrBnnj"></path><path d="M640 455.51C640 459.1 640 451.93 640 455.51C640 465.38 631.23 473.36 620.38 473.36C496.32 473.36 143.68 473.36 19.62 473.36C8.77 473.36 0 465.38 0 455.51C0 451.93 0 459.1 0 455.51C0 445.65 8.77 437.67 19.62 437.67C143.68 437.67 496.32 437.67 620.38 437.67C631.23 437.67 640 445.65 640 455.51Z" id="ctJvoEOP6"></path><path d="M199.06 274.31C197.51 272.87 185.02 261.48 183.48 260.07C182.86 259.5 182.86 258.6 183.48 258.05C185.02 256.61 197.51 245.23 199.06 243.82C199.67 243.24 200.67 243.24 201.29 243.82C201.51 244.01 203.29 245.64 203.51 245.84C204.13 246.41 204.13 247.31 203.51 247.86C202.68 248.59 198.61 252.35 191.25 259.05C198.61 265.75 202.68 269.5 203.51 270.24C204.13 270.81 204.13 271.71 203.51 272.29C203.06 272.67 201.51 274.09 201.29 274.31C200.67 274.85 199.67 274.85 199.06 274.31ZM204.71 280.85C205.97 276.43 216.1 240.87 217.36 236.41C217.55 235.74 218.42 235.35 219.26 235.54C219.55 235.61 221.97 236.22 222.29 236.28C223.13 236.51 223.65 237.24 223.46 237.92C222.13 242.37 211.71 277.87 210.39 282.33C210.19 282.97 209.42 283.35 208.65 283.16C208.06 283.03 206.06 282.52 205.81 282.45C205 282.23 204.51 281.52 204.71 280.85ZM227.17 274.31C226.94 274.12 225.17 272.48 224.94 272.29C224.33 271.71 224.33 270.81 224.94 270.27C225.75 269.5 229.85 265.78 237.17 259.08C229.85 252.38 225.75 248.63 224.94 247.89C224.33 247.31 224.33 246.41 224.94 245.87C225.17 245.64 226.94 244.04 227.17 243.82C227.78 243.27 228.78 243.27 229.39 243.82C230.94 245.26 243.4 256.64 244.98 258.05C245.56 258.6 245.56 259.53 244.98 260.07C241.85 262.93 230.94 272.9 229.39 274.31C228.75 274.89 227.78 274.89 227.17 274.31ZM172.08 206.3C208.04 206.3 228.01 206.3 232.01 206.3C232.01 215.53 232.01 220.67 232.01 221.69C232.01 223.62 233.88 225.19 236.14 225.19C237.4 225.19 243.59 225.19 254.76 225.19C254.76 230.45 254.76 256.78 254.76 304.16L254.76 304.16L172.08 304.16L172.08 206.3ZM241.37 218.16L241.37 211.14L249.24 218.16L241.37 218.16ZM262.99 221.24C262.99 221.21 262.99 221.21 262.99 221.21C262.92 220.86 262.82 220.54 262.66 220.25C262.66 220.25 262.66 220.25 262.66 220.25C262.57 220.09 262.5 219.96 262.41 219.8C262.37 219.8 262.37 219.8 262.37 219.77C262.34 219.7 262.28 219.64 262.24 219.61C262.21 219.57 262.18 219.54 262.18 219.54C262.15 219.48 262.11 219.45 262.08 219.41C262.05 219.38 262.02 219.35 261.99 219.32C261.95 219.29 261.92 219.29 261.92 219.25C261.89 219.22 261.86 219.19 261.82 219.16C259.57 217.27 241.53 202.23 239.27 200.34C238.66 199.79 237.78 199.41 236.85 199.31C236.85 199.31 236.85 199.31 236.82 199.31C236.72 199.31 236.62 199.31 236.53 199.28C236.53 199.28 236.49 199.28 236.46 199.28C236.43 199.28 236.4 199.28 236.33 199.28C229.56 199.28 175.34 199.28 168.57 199.28C166.31 199.28 164.47 200.85 164.47 202.77C164.47 213.26 164.47 297.14 164.47 307.63C164.47 309.55 166.31 311.12 168.57 311.12C177.6 311.12 249.88 311.12 258.92 311.12C261.18 311.12 263.02 309.55 263.02 307.63C263.02 299.03 263.02 230.25 263.02 221.66C263.02 221.63 263.02 221.53 263.02 221.5C263.02 221.47 263.02 221.47 263.02 221.47C263.02 221.37 262.99 221.31 262.99 221.24Z" id="a1CYEqxmg"></path><path d="M408.24 253.53C408.24 256.59 405.95 258.97 403.01 258.97C401.72 258.94 400.62 259.89 400.4 261.17C400.4 261.2 400.4 261.2 400.4 261.2C400.24 262.12 400.53 263.04 401.17 263.68C401.3 263.8 401.43 263.93 401.56 264.02C401.79 264.14 402.04 264.26 402.3 264.32C402.46 264.38 402.66 264.41 402.82 264.41C402.88 264.41 402.95 264.41 403.01 264.41C405.95 264.41 408.24 266.8 408.24 269.89C408.24 270.44 408.24 274.78 408.24 275.33C408.24 281.32 412.95 286.25 418.73 286.25C420.18 286.25 421.37 285.02 421.37 283.53C421.37 282 420.18 280.77 418.73 280.77C415.79 280.77 413.5 278.39 413.5 275.33C413.5 274.78 413.5 270.44 413.5 269.89C413.5 266.62 412.05 263.71 409.85 261.69C412.14 259.64 413.47 256.68 413.5 253.53C413.5 252.98 413.5 248.61 413.5 248.05C413.5 245 415.79 242.61 418.73 242.61C420.18 242.61 421.37 241.39 421.37 239.89C421.37 238.39 420.18 237.17 418.73 237.17C412.95 237.17 408.24 242.06 408.24 248.05C408.24 248.61 408.24 252.98 408.24 253.53ZM444.86 242.61C447.83 242.61 450.12 245 450.12 248.05C450.12 248.61 450.12 252.98 450.12 253.53C450.12 256.8 451.54 259.71 453.77 261.69C451.54 263.71 450.12 266.62 450.12 269.89C450.12 270.44 450.12 274.78 450.12 275.33C450.12 278.39 447.83 280.77 444.86 280.77C443.41 280.77 442.25 282 442.25 283.53C442.25 285.02 443.41 286.25 444.86 286.25C450.64 286.25 455.35 281.32 455.35 275.33C455.35 274.78 455.35 270.44 455.35 269.89C455.35 266.8 457.68 264.41 460.61 264.41C461.22 264.44 461.84 264.23 462.32 263.8C462.39 263.74 462.45 263.68 462.52 263.62C463.52 262.55 463.52 260.81 462.48 259.77C462 259.25 461.32 258.97 460.61 258.97C457.68 258.97 455.35 256.59 455.35 253.53C455.35 252.98 455.35 248.61 455.35 248.05C455.35 242.06 450.64 237.17 444.86 237.17C444.8 237.17 444.7 237.17 444.61 237.17C443.15 237.23 442.06 238.51 442.12 240.01C442.19 241.54 443.41 242.7 444.86 242.61Z" id="cdzLGeyT"></path><path d="M378.6 256.04C378.6 259.09 376.31 261.48 373.38 261.48C372.09 261.45 370.99 262.4 370.76 263.68C370.76 263.71 370.76 263.71 370.76 263.71C370.6 264.63 370.89 265.55 371.54 266.19C371.67 266.31 371.8 266.43 371.92 266.52C372.15 266.65 372.41 266.77 372.67 266.83C372.83 266.89 373.02 266.92 373.18 266.92C373.25 266.92 373.31 266.92 373.38 266.92C376.31 266.92 378.6 269.31 378.6 272.4C378.6 272.95 378.6 277.29 378.6 277.84C378.6 283.83 383.32 288.75 389.09 288.75C390.54 288.75 391.74 287.53 391.74 286.03C391.74 284.5 390.54 283.28 389.09 283.28C386.16 283.28 383.86 280.9 383.86 277.84C383.86 277.29 383.86 272.95 383.86 272.4C383.86 269.12 382.41 266.22 380.22 264.2C382.51 262.15 383.83 259.19 383.86 256.04C383.86 255.49 383.86 251.11 383.86 250.56C383.86 247.5 386.16 245.12 389.09 245.12C390.54 245.12 391.74 243.9 391.74 242.4C391.74 240.9 390.54 239.68 389.09 239.68C383.32 239.68 378.6 244.57 378.6 250.56C378.6 251.11 378.6 255.49 378.6 256.04ZM415.23 245.12C418.2 245.12 420.49 247.5 420.49 250.56C420.49 251.11 420.49 255.49 420.49 256.04C420.49 259.31 421.91 262.21 424.14 264.2C421.91 266.22 420.49 269.12 420.49 272.4C420.49 272.95 420.49 277.29 420.49 277.84C420.49 280.9 418.2 283.28 415.23 283.28C413.78 283.28 412.62 284.5 412.62 286.03C412.62 287.53 413.78 288.75 415.23 288.75C421.01 288.75 425.72 283.83 425.72 277.84C425.72 277.29 425.72 272.95 425.72 272.4C425.72 269.31 428.04 266.92 430.98 266.92C431.59 266.95 432.2 266.74 432.69 266.31C432.75 266.25 432.82 266.19 432.88 266.13C433.88 265.06 433.88 263.31 432.85 262.27C432.36 261.75 431.69 261.48 430.98 261.48C428.04 261.48 425.72 259.09 425.72 256.04C425.72 255.49 425.72 251.11 425.72 250.56C425.72 244.57 421.01 239.68 415.23 239.68C415.17 239.68 415.07 239.68 414.97 239.68C413.52 239.74 412.42 241.02 412.49 242.52C412.55 244.05 413.78 245.21 415.23 245.12Z" id="bayNfvbQH"></path><path d="M390.36 211.88L390.36 301.2L472.16 301.2L472.16 235.95L484.43 235.95L484.43 311.51L378.1 311.51L378.1 201.58L437.41 201.58L437.41 211.88L390.36 211.88ZM445.57 201.58L484.43 229.95L445.57 229.95L445.57 201.58Z" id="fHGGnDjtF"></path><path d="M347.6 327.54C347.6 358.26 384.61 383.16 430.25 383.16C475.9 383.16 512.9 358.26 512.9 327.54" id="bhuOdKzrc"></path><path d="M126.41 327.54C126.41 358.26 163.42 383.16 209.06 383.16C254.71 383.16 291.71 358.26 291.71 327.54" id="c2ajyKcjl7"></path><path d="M317.31 126.64C302.49 126.64 290.47 138.86 290.47 153.94C290.47 169.02 302.49 181.25 317.31 181.25C332.13 181.25 344.15 169.02 344.15 153.94C344.15 138.86 332.13 126.64 317.31 126.64Z" id="c1cylHbaRu"></path></defs><g><g><g><use xlink:href="#dULnrSRVE" opacity="1" fill="#1296db" fill-opacity="1"></use><g><use xlink:href="#dULnrSRVE" opacity="1" fill-opacity="0" stroke="#000000" stroke-width="1" stroke-opacity="0"></use></g></g><g><use xlink:href="#bmiuHQJh" opacity="1" fill="#1296db" fill-opacity="1"></use><g><use xlink:href="#bmiuHQJh" opacity="1" fill-opacity="0" stroke="#000000" stroke-width="1" stroke-opacity="0"></use></g></g><g><use xlink:href="#b4vXDrBnnj" opacity="1" fill="#1296db" fill-opacity="1"></use><g><use xlink:href="#b4vXDrBnnj" opacity="1" fill-opacity="0" stroke="#000000" stroke-width="1" stroke-opacity="0"></use></g></g><g><use xlink:href="#ctJvoEOP6" opacity="1" fill="#1296db" fill-opacity="1"></use><g><use xlink:href="#ctJvoEOP6" opacity="1" fill-opacity="0" stroke="#000000" stroke-width="1" stroke-opacity="0"></use></g></g><g><use xlink:href="#a1CYEqxmg" opacity="1" fill="#1296db" fill-opacity="1"></use><g><use xlink:href="#a1CYEqxmg" opacity="1" fill-opacity="0" stroke="#000000" stroke-width="1" stroke-opacity="0"></use></g></g><g><g><use xlink:href="#cdzLGeyT" opacity="1" fill="#1296db" fill-opacity="1"></use><g><use xlink:href="#cdzLGeyT" opacity="1" fill-opacity="0" stroke="#000000" stroke-width="1" stroke-opacity="0"></use></g></g><g><use xlink:href="#bayNfvbQH" opacity="1" fill="#000000" fill-opacity="0"></use><g><use xlink:href="#bayNfvbQH" opacity="1" fill-opacity="0" stroke="#000000" stroke-width="1" stroke-opacity="0"></use></g></g><g><use xlink:href="#fHGGnDjtF" opacity="1" fill="#1296db" fill-opacity="1"></use><g><use xlink:href="#fHGGnDjtF" opacity="1" fill-opacity="0" stroke="#000000" stroke-width="1" stroke-opacity="0"></use></g></g></g><g><use xlink:href="#bhuOdKzrc" opacity="1" fill="#1296db" fill-opacity="1"></use><g><use xlink:href="#bhuOdKzrc" opacity="1" fill-opacity="0" stroke="#000000" stroke-width="1" stroke-opacity="0"></use></g></g><g><use xlink:href="#c2ajyKcjl7" opacity="1" fill="#1296db" fill-opacity="1"></use><g><use xlink:href="#c2ajyKcjl7" opacity="1" fill-opacity="0" stroke="#000000" stroke-width="1" stroke-opacity="0"></use></g></g><g><use xlink:href="#c1cylHbaRu" opacity="1" fill="#1296db" fill-opacity="0"></use><g><use xlink:href="#c1cylHbaRu" opacity="1" fill-opacity="0" stroke="#1296db" stroke-width="15" stroke-opacity="1"></use></g></g></g></g></svg>